<svg width="22" height="22" viewBox="0 0 22 22" fill="none" xmlns="http://www.w3.org/2000/svg">
<path d="M12.4612 7.48843C9.64915 7.45117 7.01119 8.86489 5.45786 11.2415V7.48843C5.45376 5.20636 3.57269 3.30023 1.32236 3.29537C-0.472759 3.29537 -0.408522 6.09078 1.32236 6.09078C2.07124 6.09552 2.69635 6.72889 2.70103 7.48834V18.7046C2.70103 20.2271 3.9561 21.5 5.45781 21.5H13.0396C13.4202 21.5 13.7287 21.1871 13.7287 20.8012V20.1021C13.7241 19.3426 13.0991 18.7093 12.3501 18.7045H10.9717L16.4859 14.5116V20.8012C16.4859 21.1872 16.7944 21.5 17.1751 21.5H18.5534C18.9341 21.5 19.2426 21.1871 19.2426 20.8012V11.7163C16.2504 12.5658 13.1032 10.5249 12.4612 7.48843ZM19.2685 3.29545H16.4861L13.7291 0.5V6.36703C13.7291 7.86485 14.5172 9.24915 15.7967 9.9982C17.0762 10.7473 18.6529 10.7473 19.9324 9.9982C21.2119 9.24915 22 7.86485 22 6.36703V0.500296L19.2685 3.29545ZM16.1713 6.78966C15.8924 6.78966 15.6411 6.61951 15.5342 6.35838C15.3045 5.79539 15.8794 5.21162 16.4348 5.44523C17.0958 5.7225 16.9058 6.80959 16.1713 6.78966ZM19.5751 6.78966C19.2964 6.78966 19.0449 6.61951 18.938 6.35838C18.7083 5.79536 19.2831 5.21161 19.8386 5.44523C20.5069 5.72555 20.2999 6.78212 19.5751 6.78966Z" fill="white"/>
</svg>
