<svg width="48" height="49" viewBox="0 0 48 49" fill="none" xmlns="http://www.w3.org/2000/svg">
<path d="M32.3167 48C17.6917 38.1639 21.8167 24 5.31671 24C10.3792 26.9508 12.8167 34.8197 14.8792 38.1639C16.9417 41.5082 23.8792 48 32.3167 48Z" fill="#222222"/>
<path d="M30.0998 11.9741C32.5954 30.8545 9.22858 24.6381 5.39925 48.2458C15.7111 33.2897 30.9439 34.3777 33.5459 31.6576L32.032 31.6576C33.664 30.5695 46.7207 26.2173 43.4565 11.9741C43.4565 11.9741 42.0893 18.6009 40.1924 19.145C40.7364 14.2487 39.3203 7.20773 35.2961 2.28012C35.2961 2.28012 37.3774 9.75446 33.5459 16.0597C33.5459 16.0597 32.51 13.1819 30.0998 11.9741Z" fill="#FFC800"/>
</svg>
