<svg width="40" height="29" viewBox="0 0 40 29" fill="none" xmlns="http://www.w3.org/2000/svg">
<path d="M11.595 14.25C11.5917 12.384 11.9568 10.5358 12.6694 8.81138C13.382 7.0869 14.4281 5.52009 15.7476 4.20081C17.0671 2.88153 18.6341 1.83574 20.3587 1.12344C22.0833 0.411134 23.9316 0.0463306 25.7975 0.0499535C29.5614 0.0578774 33.1688 1.55641 35.8305 4.21764C38.4922 6.87887 39.9914 10.4861 40 14.25C39.9927 18.0143 38.4945 21.6224 35.8332 24.2846C33.1719 26.9469 29.5643 28.4464 25.8 28.455C23.9333 28.4592 22.084 28.0948 20.3585 27.3824C18.633 26.6701 17.0652 25.624 15.7451 24.3041C14.425 22.9842 13.3786 21.4166 12.666 19.6912C11.9534 17.9658 11.591 16.1167 11.595 14.25ZM20.495 14.25C20.495 17.1275 22.92 19.555 25.7975 19.555C28.6725 19.555 31.01 17.13 31.1 14.2525C31.1 11.3775 28.675 8.94995 25.8 8.94995C22.9225 8.94995 20.495 11.375 20.495 14.25ZM11.505 24.8575V4.18245H0L6.4725 24.8575H11.505Z" fill="white"/>
</svg>
