<svg width="22" height="24" viewBox="0 0 22 24" fill="none" xmlns="http://www.w3.org/2000/svg">
<path d="M11.525 0.02C12.835 0 14.135 0.01 15.435 0C15.515 1.53 16.065 3.09 17.185 4.17C18.305 5.28 19.885 5.79 21.425 5.96V9.99C19.985 9.94 18.535 9.64 17.225 9.02C16.655 8.76 16.125 8.43 15.605 8.09C15.595 11.01 15.615 13.93 15.585 16.84C15.505 18.24 15.045 19.63 14.235 20.78C12.925 22.7 10.655 23.95 8.325 23.99C6.895 24.07 5.465 23.68 4.245 22.96C2.225 21.77 0.804998 19.59 0.594998 17.25C0.574998 16.75 0.564998 16.25 0.584998 15.76C0.764998 13.86 1.705 12.04 3.165 10.8C4.825 9.36 7.145 8.67 9.315 9.08C9.335 10.56 9.275 12.04 9.275 13.52C8.285 13.2 7.125 13.29 6.255 13.89C5.625 14.3 5.145 14.93 4.895 15.64C4.685 16.15 4.745 16.71 4.755 17.25C4.995 18.89 6.575 20.27 8.255 20.12C9.375 20.11 10.445 19.46 11.025 18.51C11.215 18.18 11.425 17.84 11.435 17.45C11.535 15.66 11.495 13.88 11.505 12.09C11.515 8.06 11.495 4.04 11.525 0.02Z" fill="#222222"/>
</svg>
